<?xml version="1.0" encoding="UTF-8"?>
<svg version="1.1" xmlns="http://www.w3.org/2000/svg" width="250" height="150">
<path d="M0 0 C82.5 0 165 0 250 0 C250 49.5 250 99 250 150 C167.5 150 85 150 0 150 C0 100.5 0 51 0 0 Z " fill="#D8D8D8" transform="translate(0,0)"/>
<path d="M0 0 C0.67289062 0.36996094 1.34578125 0.73992188 2.0390625 1.12109375 C4.26108387 2.11701966 5.65142308 2.14865985 8.0625 2 C12 2 12 2 15 4 C15.90236964 9.93817442 15.12478509 15.42243913 13 21 C12.58852412 23.48414046 12.58852412 23.48414046 13 26 C14.63829821 27.73752774 14.63829821 27.73752774 16.9375 29 C17.74960938 29.49757812 18.56171875 29.99515625 19.3984375 30.5078125 C20.25695312 31.00023437 21.11546875 31.49265625 22 32 C22.85851562 32.49242187 23.71703125 32.98484375 24.6015625 33.4921875 C26.72303492 34.68425296 28.85374795 35.85330268 31 37 C30.01 37.495 30.01 37.495 29 38 C26.65226185 37.0150807 24.44402103 35.97663341 22.1875 34.8125 C21.57068359 34.50763672 20.95386719 34.20277344 20.31835938 33.88867188 C16.50741415 31.95687499 13.23817555 29.781747 10 27 C8.41744803 31.32564205 7.54855348 35.428721 7 40 C3.27449995 40.95599883 0.74181976 40.96294596 -2.97387695 40.01196289 C-3.93449539 39.77163834 -4.89511383 39.53131378 -5.88484192 39.28370667 C-6.9089769 39.01606003 -7.93311188 38.74841339 -8.98828125 38.47265625 C-10.04661667 38.20488876 -11.10495209 37.93712128 -12.19535828 37.66123962 C-15.57035578 36.80490999 -18.94137014 35.9339175 -22.3125 35.0625 C-24.60196632 34.47884709 -26.89167736 33.89615324 -29.18164062 33.31445312 C-34.79064614 31.88741279 -40.39645383 30.44832014 -46 29 C-45.51104248 30.10480713 -45.02208496 31.20961426 -44.51831055 32.34790039 C-42.68487517 36.75799202 -42.75383992 39.32295842 -43 44 C-43.99 44 -44.98 44 -46 44 C-46.12117188 43.26394531 -46.24234375 42.52789062 -46.3671875 41.76953125 C-46.53476563 40.79371094 -46.70234375 39.81789062 -46.875 38.8125 C-47.11863281 37.36810547 -47.11863281 37.36810547 -47.3671875 35.89453125 C-47.99863795 33.00623012 -48.58754243 30.6023736 -50 28 C-52.119969 26.87037119 -52.119969 26.87037119 -54.5625 26.375 C-57.00390625 25.7734375 -57.00390625 25.7734375 -59 25 C-59.33 24.01 -59.66 23.02 -60 22 C-58.02 22 -56.04 22 -54 22 C-54.33 20.35 -54.66 18.7 -55 17 C-55.66 17 -56.32 17 -57 17 C-58.17154293 14.71070947 -59.33738074 12.41881638 -60.5 10.125 C-60.83386719 9.47402344 -61.16773437 8.82304688 -61.51171875 8.15234375 C-64 3.2265625 -64 3.2265625 -64 1 C-63.01 1 -62.02 1 -61 1 C-60.61328125 1.79664063 -60.2265625 2.59328125 -59.828125 3.4140625 C-56.55622506 10.20724151 -56.55622506 10.20724151 -52.625 16.625 C-51 19 -51 19 -51 21 C-23.33744629 20.57677502 -23.33744629 20.57677502 2 11 C2.25015873 7.41642759 2.25015873 7.41642759 2 4 C-16.16505173 -5.5966311 -38.98841252 -6.72452457 -59 -3 C-48.01218155 -15.03427735 -13.17025528 -5.77806937 0 0 Z " fill="#DF8080" transform="translate(139,59)"/>
<path d="M0 0 C2.89312787 3.13157247 5 6.51486567 5 10.8125 C4.67 11.864375 4.34 12.91625 4 14 C3.47601131 15.95749142 2.95542424 17.91589528 2.4375 19.875 C1.96121958 21.58414026 1.48301203 23.29274992 1 25 C-5.59228365 23.73461095 -12.11275619 22.29379237 -18.62109375 20.65234375 C-19.48767105 20.43558487 -20.35424835 20.21882599 -21.24708557 19.99549866 C-23.05815241 19.54198336 -24.86893645 19.08733729 -26.67944336 18.6315918 C-29.45423417 17.93328868 -32.22996751 17.23883374 -35.00585938 16.54492188 C-36.77349349 16.10178577 -38.5410736 15.6584342 -40.30859375 15.21484375 C-41.13669052 15.00754135 -41.96478729 14.80023895 -42.81797791 14.58665466 C-45.91469084 13.80604799 -48.96907613 13.01030796 -52 12 C-52 11.01 -52 10.02 -52 9 C-51.12601562 8.93268677 -51.12601562 8.93268677 -50.234375 8.86401367 C-27.21027476 7.15512745 -27.21027476 7.15512745 -5.13671875 0.76953125 C-3 0 -3 0 0 0 Z " fill="#D9D8D8" transform="translate(142,73)"/>
<path d="M0 0 C0.99 0 1.98 0 3 0 C3.38671875 0.79664063 3.7734375 1.59328125 4.171875 2.4140625 C7.44377494 9.20724151 7.44377494 9.20724151 11.375 15.625 C13 18 13 18 13 20 C29.23098748 19.47290186 45.55697964 18.59084659 60.84765625 12.671875 C63 12 63 12 65 13 C51.22066178 22.10837611 30.90942666 22.44745262 15 22 C15 22.99 15 23.98 15 25 C15.56348145 25.08636719 16.12696289 25.17273438 16.70751953 25.26171875 C25.67346795 26.75861843 34.42485493 29.03938966 43.21777344 31.31347656 C45.88860202 32.00351423 48.56134555 32.6857312 51.234375 33.3671875 C52.94543122 33.80682986 54.65637295 34.24691812 56.3671875 34.6875 C57.15995087 34.88964111 57.95271423 35.09178223 58.76950073 35.30004883 C62.63683348 36.30514021 66.32630563 37.39693337 70 39 C66.66801559 40.1034778 64.51783376 39.87428914 61.13964844 39.01196289 C60.17895447 38.77163834 59.2182605 38.53131378 58.22845459 38.28370667 C57.19915833 38.01606003 56.16986206 37.74841339 55.109375 37.47265625 C54.04962463 37.20488876 52.98987427 36.93712128 51.89801025 36.66123962 C48.51303105 35.80379785 45.13155808 34.93332559 41.75 34.0625 C39.45594804 33.4789566 37.16167954 32.89626373 34.8671875 32.31445312 C29.24224164 30.88616273 23.62011913 29.44715918 18 28 C18.48895752 29.10480713 18.97791504 30.20961426 19.48168945 31.34790039 C21.31512483 35.75799202 21.24616008 38.32295842 21 43 C20.01 43 19.02 43 18 43 C17.87882812 42.26394531 17.75765625 41.52789062 17.6328125 40.76953125 C17.46523437 39.79371094 17.29765625 38.81789062 17.125 37.8125 C16.88136719 36.36810547 16.88136719 36.36810547 16.6328125 34.89453125 C16.00136205 32.00623012 15.41245757 29.6023736 14 27 C11.880031 25.87037119 11.880031 25.87037119 9.4375 25.375 C6.99609375 24.7734375 6.99609375 24.7734375 5 24 C4.67 23.01 4.34 22.02 4 21 C5.98 21 7.96 21 10 21 C9.67 19.35 9.34 17.7 9 16 C8.34 16 7.68 16 7 16 C5.82845707 13.71070947 4.66261926 11.41881638 3.5 9.125 C3.16613281 8.47402344 2.83226563 7.82304688 2.48828125 7.15234375 C0 2.2265625 0 2.2265625 0 0 Z " fill="#DF7272" transform="translate(75,60)"/>
<path d="M0 0 C1.00740234 0.55300781 1.00740234 0.55300781 2.03515625 1.1171875 C4.26010086 2.1168644 5.70565913 2.17748768 8.125 2.0625 C12 2 12 2 14 3 C14 6.3 14 9.6 14 13 C13.67 13 13.34 13 13 13 C12.505 9.04 12.505 9.04 12 5 C10.35 4.67 8.7 4.34 7 4 C7 5.98 7 7.96 7 10 C5.515 10.495 5.515 10.495 4 11 C4 11.66 4 12.32 4 13 C3.34 13 2.68 13 2 13 C2 10.03 2 7.06 2 4 C-16.16505173 -5.5966311 -38.98841252 -6.72452457 -59 -3 C-48.01218155 -15.03427735 -13.17025528 -5.77806937 0 0 Z " fill="#E06C6C" transform="translate(139,59)"/>
<path d="M0 0 C1.65 0 3.3 0 5 0 C5.20413361 5.73842251 5.27141454 10.60539047 3 16 C2.34 16 1.68 16 1 16 C-1.00274103 13.07291696 -2.09013771 10.96146892 -1.75390625 7.375 C-1.24224647 4.89080355 -0.67178095 2.44547598 0 0 Z " fill="#D9D7D7" transform="translate(146,63)"/>
<path d="M0 0 C0.38999191 7.59762024 -0.39241413 13.84466021 -3 21 C-4.32 19.35 -5.64 17.7 -7 16 C-6.34 16 -5.68 16 -5 16 C-4.87882813 14.92878906 -4.75765625 13.85757813 -4.6328125 12.75390625 C-4.46402399 11.35671248 -4.29472687 9.95958009 -4.125 8.5625 C-4.04636719 7.85544922 -3.96773437 7.14839844 -3.88671875 6.41992188 C-3.66072324 4.60326568 -3.33699273 2.79937478 -3 1 C-1 0 -1 0 0 0 Z " fill="#DE8C8C" transform="translate(154,63)"/>
<path d="M0 0 C0.99 0.33 1.98 0.66 3 1 C2.34 1 1.68 1 1 1 C1.495 1.99 1.99 2.98 2.5 4 C4.30103581 8.13477234 4.23515871 11.53198453 4 16 C3.01 16 2.02 16 1 16 C0.663389 14.22978678 0.33082707 12.45880326 0 10.6875 C-0.185625 9.70136719 -0.37125 8.71523437 -0.5625 7.69921875 C-1.36721311 2.73442623 -1.36721311 2.73442623 0 0 Z " fill="#DE8787" transform="translate(92,87)"/>
<path d="M0 0 C0.66 0 1.32 0 2 0 C2.43828125 0.76183594 2.8765625 1.52367188 3.328125 2.30859375 C5.20085601 5.32334063 6.6812588 6.35181974 9.75 8.0625 C11.06871094 8.81080078 11.06871094 8.81080078 12.4140625 9.57421875 C13.26742187 10.04472656 14.12078125 10.51523438 15 11 C16.37592283 11.79006169 17.75106674 12.58148345 19.125 13.375 C20.07375 13.91125 21.0225 14.4475 22 15 C21.01 15.495 21.01 15.495 20 16 C17.67020728 15.03821377 15.48680308 14.0211305 13.25 12.875 C12.6415625 12.57851562 12.033125 12.28203125 11.40625 11.9765625 C7.08238885 9.79615388 3.46183463 7.40873901 0 4 C0 2.68 0 1.36 0 0 Z " fill="#E15E5E" transform="translate(148,81)"/>
<path d="M0 0 C1.65 0 3.3 0 5 0 C5 2.31 5 4.62 5 7 C4.38125 7.144375 3.7625 7.28875 3.125 7.4375 C0.96741678 7.93152225 0.96741678 7.93152225 -1 9 C-0.67 6.03 -0.34 3.06 0 0 Z " fill="#D8E0E0" transform="translate(146,63)"/>
<path d="M0 0 C4 6 4 6 4 10 C4.66 10.33 5.32 10.66 6 11 C5.01 11 4.02 11 3 11 C-1 5.74285714 -1 5.74285714 -1 3 C-1.99 2.67 -2.98 2.34 -4 2 C-3.34 1.67 -2.68 1.34 -2 1 C-1.34 1.33 -0.68 1.66 0 2 C0 1.34 0 0.68 0 0 Z " fill="#DF7474" transform="translate(143,70)"/>
<path d="M0 0 C0.99 0.99 1.98 1.98 3 3 C1.02 3 -0.96 3 -3 3 C-3 3.66 -3 4.32 -3 5 C-4.32 4.67 -5.64 4.34 -7 4 C-7 3.34 -7 2.68 -7 2 C-4.69 2 -2.38 2 0 2 C0 1.34 0 0.68 0 0 Z " fill="#E15A5A" transform="translate(86,79)"/>
<path d="M0 0 C1.32 1.65 2.64 3.3 4 5 C3 7 3 7 1 8 C0.67 6.35 0.34 4.7 0 3 C-0.66 3 -1.32 3 -2 3 C-1 1 -1 1 0 0 Z " fill="#DE8585" transform="translate(84,73)"/>
</svg>
