<?xml version="1.0" encoding="UTF-8"?>
<svg version="1.1" xmlns="http://www.w3.org/2000/svg" width="120" height="120">
<path d="M0 0 C6.13852822 -0.06902968 12.27569894 -0.12871659 18.41430664 -0.16479492 C20.5006162 -0.17984159 22.58689433 -0.20028382 24.6730957 -0.22631836 C27.67927831 -0.26288295 30.68504112 -0.2797679 33.69140625 -0.29296875 C34.61772354 -0.30845261 35.54404083 -0.32393646 36.49842834 -0.33988953 C43.20864604 -0.3416166 48.09196818 0.55113109 53.375 5 C56.13889965 8.40172264 56.28186162 11.6459099 56.21875 15.9375 C55.78689603 20.00926596 54.09545954 22.94231493 51.1875 25.75 C48.55220497 27.25588287 45.9047919 28.14176603 43 29 C45.475 30.98 45.475 30.98 48 33 C53.69644248 25.48960656 58.77038587 17.72266157 63.703125 9.69921875 C64.09540283 9.0760376 64.48768066 8.45285645 64.8918457 7.81079102 C65.9258923 6.12109645 66.87121837 4.37799085 67.80859375 2.6328125 C70.20505127 -0.24635393 71.92257964 -1.14838683 75.63452148 -1.69897461 C79.82348534 -1.917321 83.17112895 -1.88890972 87 0 C92.77528652 5.61941559 96.47639926 13.04458137 100.328125 20.04101562 C102.6378076 24.12883004 105.25524472 27.96336862 107.9375 31.8125 C112 37.70534857 112 37.70534857 112 40 C109.58063683 40.16249454 107.17218141 40.28097817 104.75 40.375 C104.06808594 40.42527344 103.38617188 40.47554687 102.68359375 40.52734375 C100.671875 40.5859375 100.671875 40.5859375 97 40 C96.40026367 39.01435059 95.80052734 38.02870117 95.18261719 37.01318359 C93.29300506 33.72767561 93.29300506 33.72767561 89.94726562 33.22363281 C88.77873047 33.21686523 87.61019531 33.21009766 86.40625 33.203125 C85.12878906 33.19539063 83.85132812 33.18765625 82.53515625 33.1796875 C81.87273926 33.19225586 81.21032227 33.20482422 80.52783203 33.21777344 C78.50409395 33.24993494 76.4883346 33.21808017 74.46484375 33.1796875 C72.54865234 33.19128906 72.54865234 33.19128906 70.59375 33.203125 C68.84094727 33.21327637 68.84094727 33.21327637 67.05273438 33.22363281 C62.8760081 34.28585207 62.21576358 36.44068426 60 40 C56.75306115 41.2443705 53.45735078 41.04384431 50 41 C49.0517334 40.99798584 48.1034668 40.99597168 47.12646484 40.99389648 C38.85784688 40.63799071 35.65920885 38.18025953 29.9296875 32.29296875 C24.61206588 28.13104356 18.55197512 28.69567329 12 29 C12 32.63 12 36.26 12 40 C8.04 40 4.08 40 0 40 C0 26.8 0 13.6 0 0 Z M78 10 C76.82786955 11.78809697 75.66244474 13.58059125 74.5 15.375 C73.8503125 16.37273438 73.200625 17.37046875 72.53125 18.3984375 C70.8309179 20.78414197 70.8309179 20.78414197 71 23 C75.95 23 80.9 23 86 23 C85.4225 21.783125 84.845 20.56625 84.25 19.3125 C83.92515625 18.62800781 83.6003125 17.94351563 83.265625 17.23828125 C81.76546066 14.58521283 79.94864215 12.33755182 78 10 Z M12 11 C12 13.64 12 16.28 12 19 C21.57 19 31.14 19 41 19 C41.66 17.35 42.32 15.7 43 14 C41.89980682 12.3844701 41.89980682 12.3844701 40 11 C36.9969171 10.58486237 36.9969171 10.58486237 33.58203125 10.70703125 C32.32841797 10.71669922 31.07480469 10.72636719 29.78320312 10.73632812 C27.81770508 10.7740332 27.81770508 10.7740332 25.8125 10.8125 C24.47722837 10.82755033 23.14194063 10.84123813 21.80664062 10.85351562 C18.53735424 10.88892306 15.26887907 10.9383111 12 11 Z " fill="#000000" transform="translate(5,37)"/>
</svg>
